<svg width="640" height="169" viewBox="0 0 640 169" fill="none" xmlns="http://www.w3.org/2000/svg">
<path d="M24.8218 0V105.162H2.86485V0H24.8218Z" fill="#4EA06C"/>
<path d="M64.0833 59.5642V105.162H42.4813V26.2904H63.0691V40.2059H63.9819C65.706 35.6187 68.5964 31.9901 72.6531 29.32C76.7098 26.6156 81.6286 25.2635 87.4094 25.2635C92.8184 25.2635 97.5343 26.4616 101.557 28.8578C105.58 31.2541 108.707 34.6773 110.938 39.1275C113.17 43.5435 114.285 48.8153 114.285 54.9429V105.162H92.6832V58.8453C92.717 54.0186 91.5 50.253 89.0321 47.5487C86.5643 44.8101 83.1668 43.4408 78.8396 43.4408C75.9323 43.4408 73.363 44.0741 71.1318 45.3407C68.9345 46.6073 67.2103 48.4558 65.9595 50.8863C64.7425 53.2826 64.1171 56.1752 64.0833 59.5642Z" fill="#4EA06C"/>
<path d="M147.842 105.162L118.126 0H142.112L159.302 73.0689H160.164L179.129 0H199.666L218.581 73.2229H219.494L236.684 0H260.669L230.954 105.162H209.555L189.778 36.4061H188.967L169.241 105.162H147.842Z" fill="#4E62CC"/>
<path d="M285.859 106.651C280.89 106.651 276.461 105.778 272.573 104.032C268.686 102.252 265.609 99.6332 263.344 96.1757C261.113 92.684 259.998 88.3365 259.998 83.1332C259.998 78.7514 260.792 75.0715 262.381 72.0933C263.97 69.115 266.133 66.7188 268.872 64.9045C271.61 63.0902 274.72 61.7209 278.202 60.7966C281.718 59.8723 285.403 59.2219 289.257 58.8453C293.787 58.3661 297.438 57.9211 300.21 57.5103C302.982 57.0653 304.993 56.4149 306.244 55.559C307.495 54.7032 308.12 53.4366 308.12 51.7593V51.4512C308.12 48.1991 307.106 45.683 305.078 43.9029C303.083 42.1229 300.244 41.2328 296.559 41.2328C292.671 41.2328 289.578 42.1057 287.279 43.8516C284.98 45.5632 283.459 47.7198 282.715 50.3215L262.736 48.6784C263.75 43.8858 265.745 39.7437 268.719 36.252C271.694 32.7261 275.531 30.0217 280.23 28.139C284.963 26.222 290.44 25.2635 296.66 25.2635C300.987 25.2635 305.129 25.7769 309.084 26.8039C313.073 27.8309 316.606 29.4227 319.682 31.5793C322.792 33.7359 325.243 36.5088 327.035 39.8978C328.827 43.2525 329.722 47.2748 329.722 51.9647V105.162H309.236V94.2244H308.627C307.377 96.6892 305.703 98.8629 303.607 100.746C301.511 102.594 298.993 104.049 296.052 105.11C293.111 106.137 289.713 106.651 285.859 106.651ZM292.046 91.5543C295.223 91.5543 298.029 90.921 300.463 89.6544C302.897 88.3536 304.807 86.6078 306.193 84.4169C307.579 82.226 308.273 79.7442 308.273 76.9714V68.6016C307.596 69.0466 306.667 69.4574 305.484 69.8339C304.334 70.1762 303.033 70.5014 301.579 70.8095C300.125 71.0834 298.672 71.3401 297.218 71.5798C295.764 71.7852 294.446 71.9734 293.263 72.1446C290.727 72.5212 288.513 73.1202 286.62 73.9418C284.727 74.7634 283.256 75.8759 282.208 77.2794C281.16 78.6487 280.636 80.3604 280.636 82.4143C280.636 85.3925 281.701 87.669 283.831 89.2436C285.994 90.7841 288.733 91.5543 292.046 91.5543Z" fill="#4E62CC"/>
<path d="M411.288 48.781L391.511 50.0134C391.173 48.3018 390.446 46.7613 389.331 45.392C388.215 43.9885 386.745 42.876 384.919 42.0544C383.127 41.1986 380.981 40.7707 378.479 40.7707C375.132 40.7707 372.31 41.4896 370.011 42.9273C367.712 44.3308 366.562 46.2136 366.562 48.5757C366.562 50.4584 367.306 52.0502 368.794 53.3511C370.281 54.6519 372.834 55.696 376.451 56.4833L390.548 59.3588C398.12 60.9335 403.766 63.4667 407.485 66.9584C411.203 70.4501 413.063 75.0372 413.063 80.7198C413.063 85.8889 411.558 90.4247 408.55 94.3271C405.575 98.2296 401.484 101.276 396.278 103.467C391.106 105.624 385.139 106.702 378.378 106.702C368.067 106.702 359.852 104.528 353.733 100.181C347.648 95.7991 344.082 89.8427 343.034 82.3116L364.281 81.1819C364.923 84.3655 366.478 86.796 368.946 88.4734C371.414 90.1166 374.575 90.9381 378.428 90.9381C382.215 90.9381 385.257 90.2021 387.556 88.7302C389.889 87.2239 391.072 85.2898 391.106 82.9278C391.072 80.9423 390.244 79.3163 388.621 78.0497C386.998 76.7488 384.497 75.7561 381.116 75.0715L367.627 72.35C360.021 70.8095 354.359 68.1394 350.64 64.3396C346.955 60.5398 345.113 55.696 345.113 49.808C345.113 44.7416 346.465 40.377 349.169 36.7142C351.908 33.0513 355.745 30.2271 360.68 28.2417C365.65 26.2562 371.464 25.2635 378.124 25.2635C387.962 25.2635 395.703 27.3687 401.349 31.5793C407.028 35.7899 410.341 41.5238 411.288 48.781Z" fill="#4E62CC"/>
<path d="M491.471 48.781L471.695 50.0134C471.357 48.3018 470.63 46.7613 469.514 45.392C468.399 43.9885 466.928 42.876 465.103 42.0544C463.311 41.1986 461.164 40.7707 458.663 40.7707C455.316 40.7707 452.493 41.4896 450.194 42.9273C447.895 44.3308 446.746 46.2136 446.746 48.5757C446.746 50.4584 447.49 52.0502 448.977 53.3511C450.465 54.6519 453.017 55.696 456.634 56.4833L470.732 59.3588C478.304 60.9335 483.95 63.4667 487.668 66.9584C491.387 70.4501 493.246 75.0372 493.246 80.7198C493.246 85.8889 491.742 90.4247 488.733 94.3271C485.758 98.2296 481.668 101.276 476.462 103.467C471.289 105.624 465.323 106.702 458.561 106.702C448.25 106.702 440.036 104.528 433.917 100.181C427.832 95.7991 424.265 89.8427 423.217 82.3116L444.464 81.1819C445.107 84.3655 446.662 86.796 449.129 88.4734C451.597 90.1166 454.758 90.9381 458.612 90.9381C462.398 90.9381 465.441 90.2021 467.74 88.7302C470.072 87.2239 471.255 85.2898 471.289 82.9278C471.255 80.9423 470.427 79.3163 468.805 78.0497C467.182 76.7488 464.68 75.7561 461.3 75.0715L447.811 72.35C440.205 70.8095 434.542 68.1394 430.823 64.3396C427.139 60.5398 425.296 55.696 425.296 49.808C425.296 44.7416 426.648 40.377 429.353 36.7142C432.091 33.0513 435.928 30.2271 440.864 28.2417C445.833 26.2562 451.648 25.2635 458.308 25.2635C468.145 25.2635 475.887 27.3687 481.532 31.5793C487.212 35.7899 490.525 41.5238 491.471 48.781Z" fill="#4E62CC"/>
<path d="M542.345 106.702C534.333 106.702 527.437 105.059 521.656 101.773C515.909 98.4521 511.48 93.7623 508.37 87.7032C505.26 81.6098 503.705 74.4039 503.705 66.0855C503.705 57.9724 505.26 50.8521 508.37 44.7245C511.48 38.5969 515.858 33.8215 521.504 30.3983C527.183 26.9751 533.843 25.2635 541.483 25.2635C546.622 25.2635 551.405 26.1021 555.834 27.7795C560.296 29.4227 564.184 31.9045 567.497 35.2251C570.844 38.5456 573.447 42.7219 575.306 47.7541C577.165 52.752 578.095 58.6057 578.095 65.3153V71.323H512.326V57.767H557.761C557.761 54.6177 557.085 51.8277 555.732 49.3972C554.38 46.9667 552.504 45.0668 550.104 43.6975C547.737 42.294 544.982 41.5923 541.838 41.5923C538.559 41.5923 535.652 42.3625 533.116 43.9029C530.615 45.4092 528.654 47.446 527.234 50.0134C525.814 52.5466 525.087 55.3708 525.054 58.4859V71.3744C525.054 75.2769 525.763 78.6487 527.183 81.49C528.637 84.3313 530.682 86.5222 533.319 88.0626C535.956 89.6031 539.083 90.3733 542.7 90.3733C545.1 90.3733 547.298 90.031 549.292 89.3463C551.287 88.6617 552.994 87.6347 554.414 86.2654C555.834 84.8961 556.916 83.2188 557.659 81.2333L577.639 82.5683C576.625 87.4293 574.546 91.6741 571.402 95.3028C568.291 98.8972 564.268 101.704 559.333 103.724C554.431 105.709 548.768 106.702 542.345 106.702Z" fill="#4E62CC"/>
<path d="M592.192 105.162V26.2904H613.135V40.0518H613.946C615.366 35.1566 617.75 31.4595 621.096 28.9605C624.443 26.4273 628.297 25.1608 632.658 25.1608C633.74 25.1608 634.906 25.2292 636.157 25.3661C637.408 25.5031 638.506 25.6914 639.453 25.931V45.3407C638.439 45.0326 637.036 44.7587 635.244 44.5191C633.452 44.2795 631.813 44.1597 630.325 44.1597C627.148 44.1597 624.308 44.8614 621.806 46.265C619.338 47.6343 617.378 49.5513 615.924 52.016C614.504 54.4807 613.794 57.322 613.794 60.5398V105.162H592.192Z" fill="#4E62CC"/>
<path d="M0 136.091V130.302H30.0362V136.091H18.4004V168.423H11.6358V136.091H0Z" fill="#4E62CC"/>
<path d="M37.3795 168.423V130.302H61.8643V136.091H44.1992V146.44H60.5959V152.229H44.1992V162.634H62.0114V168.423H37.3795Z" fill="#4E62CC"/>
<path d="M102.598 143.164H95.7236C95.5275 142.022 95.166 141.011 94.6391 140.13C94.1121 139.237 93.4565 138.48 92.6722 137.859C91.8879 137.239 90.9933 136.773 89.9884 136.463C88.9958 136.14 87.9235 135.979 86.7716 135.979C84.725 135.979 82.9113 136.5 81.3305 137.543C79.7496 138.573 78.5119 140.087 77.6173 142.084C76.7227 144.07 76.2754 146.496 76.2754 149.362C76.2754 152.279 76.7227 154.736 77.6173 156.734C78.5242 158.719 79.7619 160.22 81.3305 161.238C82.9113 162.243 84.7189 162.746 86.7532 162.746C87.8806 162.746 88.9345 162.597 89.9149 162.299C90.9075 161.989 91.796 161.536 92.5803 160.94C93.3768 160.345 94.0447 159.612 94.5839 158.744C95.1354 157.875 95.5153 156.882 95.7236 155.766L102.598 155.803C102.341 157.615 101.784 159.315 100.926 160.903C100.08 162.491 98.9711 163.894 97.5986 165.11C96.226 166.313 94.6207 167.257 92.7825 167.939C90.9443 168.609 88.9039 168.944 86.6613 168.944C83.3525 168.944 80.3991 168.169 77.8011 166.617C75.2031 165.066 73.1566 162.826 71.6615 159.898C70.1665 156.969 69.4189 153.457 69.4189 149.362C69.4189 145.255 70.1726 141.743 71.6799 138.827C73.1872 135.898 75.2399 133.659 77.8379 132.107C80.4359 130.556 83.377 129.781 86.6613 129.781C88.7568 129.781 90.7053 130.079 92.5068 130.674C94.3082 131.27 95.9136 132.145 97.3228 133.299C98.7321 134.44 99.8902 135.843 100.797 137.505C101.716 139.156 102.317 141.042 102.598 143.164Z" fill="#4E62CC"/>
<path d="M141.334 130.302V168.423H135.268L117.529 142.457H117.216V168.423H110.397V130.302H116.5L134.22 156.287H134.551V130.302H141.334Z" fill="#4E62CC"/>
<path d="M183.957 149.362C183.957 153.47 183.197 156.988 181.677 159.916C180.17 162.833 178.111 165.066 175.501 166.617C172.903 168.169 169.956 168.944 166.659 168.944C163.363 168.944 160.409 168.169 157.799 166.617C155.201 165.054 153.142 162.814 151.623 159.898C150.115 156.969 149.362 153.457 149.362 149.362C149.362 145.255 150.115 141.743 151.623 138.827C153.142 135.898 155.201 133.659 157.799 132.107C160.409 130.556 163.363 129.781 166.659 129.781C169.956 129.781 172.903 130.556 175.501 132.107C178.111 133.659 180.17 135.898 181.677 138.827C183.197 141.743 183.957 145.255 183.957 149.362ZM177.1 149.362C177.1 146.471 176.653 144.033 175.758 142.047C174.876 140.049 173.65 138.542 172.082 137.524C170.513 136.494 168.706 135.979 166.659 135.979C164.613 135.979 162.805 136.494 161.236 137.524C159.668 138.542 158.436 140.049 157.542 142.047C156.659 144.033 156.218 146.471 156.218 149.362C156.218 152.254 156.659 154.698 157.542 156.696C158.436 158.682 159.668 160.189 161.236 161.219C162.805 162.237 164.613 162.746 166.659 162.746C168.706 162.746 170.513 162.237 172.082 161.219C173.65 160.189 174.876 158.682 175.758 156.696C176.653 154.698 177.1 152.254 177.1 149.362Z" fill="#4E62CC"/>
<path d="M191.957 168.423V130.302H198.777V162.634H215.357V168.423H191.957Z" fill="#4E62CC"/>
<path d="M255.002 149.362C255.002 153.47 254.242 156.988 252.723 159.916C251.216 162.833 249.157 165.066 246.547 166.617C243.949 168.169 241.001 168.944 237.705 168.944C234.408 168.944 231.455 168.169 228.845 166.617C226.247 165.054 224.188 162.814 222.668 159.898C221.161 156.969 220.407 153.457 220.407 149.362C220.407 145.255 221.161 141.743 222.668 138.827C224.188 135.898 226.247 133.659 228.845 132.107C231.455 130.556 234.408 129.781 237.705 129.781C241.001 129.781 243.949 130.556 246.547 132.107C249.157 133.659 251.216 135.898 252.723 138.827C254.242 141.743 255.002 145.255 255.002 149.362ZM248.146 149.362C248.146 146.471 247.699 144.033 246.804 142.047C245.922 140.049 244.696 138.542 243.128 137.524C241.559 136.494 239.751 135.979 237.705 135.979C235.658 135.979 233.851 136.494 232.282 137.524C230.714 138.542 229.482 140.049 228.587 142.047C227.705 144.033 227.264 146.471 227.264 149.362C227.264 152.254 227.705 154.698 228.587 156.696C229.482 158.682 230.714 160.189 232.282 161.219C233.851 162.237 235.658 162.746 237.705 162.746C239.751 162.746 241.559 162.237 243.128 161.219C244.696 160.189 245.922 158.682 246.804 156.696C247.699 154.698 248.146 152.254 248.146 149.362Z" fill="#4E62CC"/>
<path d="M288.223 142.475C287.916 141.47 287.494 140.571 286.954 139.776C286.428 138.97 285.79 138.281 285.043 137.71C284.307 137.139 283.462 136.711 282.506 136.426C281.55 136.128 280.509 135.979 279.381 135.979C277.359 135.979 275.558 136.494 273.977 137.524C272.396 138.554 271.152 140.068 270.245 142.066C269.351 144.051 268.903 146.471 268.903 149.325C268.903 152.204 269.351 154.643 270.245 156.64C271.14 158.638 272.384 160.158 273.977 161.201C275.57 162.231 277.42 162.746 279.528 162.746C281.44 162.746 283.094 162.373 284.491 161.629C285.901 160.884 286.985 159.83 287.745 158.465C288.505 157.087 288.885 155.474 288.885 153.625L290.429 153.867H280.208V148.469H295.484V153.048C295.484 156.312 294.797 159.135 293.425 161.517C292.052 163.9 290.165 165.736 287.763 167.027C285.361 168.305 282.604 168.944 279.491 168.944C276.023 168.944 272.978 168.156 270.356 166.58C267.745 164.992 265.705 162.74 264.234 159.823C262.776 156.895 262.047 153.42 262.047 149.4C262.047 146.322 262.476 143.574 263.334 141.154C264.204 138.734 265.417 136.68 266.973 134.993C268.53 133.292 270.355 132.002 272.451 131.121C274.547 130.227 276.826 129.781 279.289 129.781C281.372 129.781 283.315 130.091 285.116 130.711C286.918 131.319 288.517 132.188 289.914 133.317C291.323 134.447 292.481 135.787 293.388 137.338C294.295 138.889 294.889 140.602 295.171 142.475H288.223Z" fill="#4E62CC"/>
<path d="M310.451 130.302V168.423H303.631V130.302H310.451Z" fill="#4E62CC"/>
<path d="M324.223 168.423H316.944L330.197 130.302H338.616L351.888 168.423H344.609L334.554 138.12H334.26L324.223 168.423ZM324.462 153.476H344.315V159.023H324.462V153.476Z" fill="#4E62CC"/>
<path d="M385.549 168.423H372.792V130.302H385.807C389.545 130.302 392.755 131.065 395.439 132.591C398.135 134.105 400.206 136.283 401.652 139.125C403.098 141.967 403.821 145.367 403.821 149.325C403.821 153.296 403.092 156.709 401.634 159.563C400.188 162.417 398.098 164.607 395.366 166.133C392.645 167.66 389.373 168.423 385.549 168.423ZM379.612 162.448H385.219C387.841 162.448 390.029 161.964 391.781 160.996C393.533 160.016 394.851 158.558 395.733 156.622C396.615 154.674 397.057 152.241 397.057 149.325C397.057 146.409 396.615 143.989 395.733 142.066C394.851 140.13 393.546 138.684 391.818 137.729C390.102 136.761 387.97 136.277 385.421 136.277H379.612V162.448Z" fill="#4E62CC"/>
<path d="M411.854 168.423V130.302H436.339V136.091H418.674V146.44H435.07V152.229H418.674V162.634H436.486V168.423H411.854Z" fill="#4E62CC"/>
<path d="M444.849 168.423V130.302H451.669V162.634H468.249V168.423H444.849Z" fill="#4E62CC"/>
<path d="M494.949 168.423H487.669L500.923 130.302H509.342L522.614 168.423H515.334L505.279 138.12H504.985L494.949 168.423ZM495.188 153.476H515.04V159.023H495.188V153.476Z" fill="#4E62CC"/>
<path d="M552.576 142.475C552.27 141.47 551.847 140.571 551.307 139.776C550.781 138.97 550.143 138.281 549.396 137.71C548.66 137.139 547.815 136.711 546.859 136.426C545.903 136.128 544.862 135.979 543.734 135.979C541.712 135.979 539.911 136.494 538.33 137.524C536.749 138.554 535.505 140.068 534.598 142.066C533.704 144.051 533.256 146.471 533.256 149.325C533.256 152.204 533.704 154.643 534.598 156.64C535.493 158.638 536.737 160.158 538.33 161.201C539.923 162.231 541.773 162.746 543.881 162.746C545.793 162.746 547.447 162.373 548.844 161.629C550.254 160.884 551.338 159.83 552.098 158.465C552.858 157.087 553.238 155.474 553.238 153.625L554.782 153.867H544.561V148.469H559.837V153.048C559.837 156.312 559.15 159.135 557.778 161.517C556.405 163.9 554.518 165.736 552.116 167.027C549.714 168.305 546.957 168.944 543.844 168.944C540.376 168.944 537.331 168.156 534.709 166.58C532.098 164.992 530.058 162.74 528.587 159.823C527.129 156.895 526.4 153.42 526.4 149.4C526.4 146.322 526.829 143.574 527.687 141.154C528.557 138.734 529.77 136.68 531.326 134.993C532.883 133.292 534.709 132.002 536.804 131.121C538.9 130.227 541.179 129.781 543.642 129.781C545.726 129.781 547.668 130.091 549.469 130.711C551.271 131.319 552.87 132.188 554.267 133.317C555.676 134.447 556.834 135.787 557.741 137.338C558.648 138.889 559.242 140.602 559.524 142.475H552.576Z" fill="#4E62CC"/>
<path d="M591.715 130.302H598.535V155.207C598.535 157.937 597.898 160.338 596.623 162.411C595.361 164.483 593.584 166.102 591.293 167.269C589.001 168.423 586.323 169 583.26 169C580.184 169 577.5 168.423 575.208 167.269C572.917 166.102 571.14 164.483 569.878 162.411C568.615 160.338 567.984 157.937 567.984 155.207V130.302H574.804V154.63C574.804 156.219 575.147 157.633 575.833 158.874C576.532 160.115 577.512 161.089 578.774 161.796C580.037 162.491 581.532 162.839 583.26 162.839C584.988 162.839 586.483 162.491 587.745 161.796C589.019 161.089 590 160.115 590.686 158.874C591.372 157.633 591.715 156.219 591.715 154.63V130.302Z" fill="#4E62CC"/>
<path d="M612.335 168.423H605.056L618.309 130.302H626.728L640 168.423H632.721L622.666 138.12H622.372L612.335 168.423ZM612.574 153.476H632.427V159.023H612.574V153.476Z" fill="#4E62CC"/>
</svg>
